<svg id="Layer_1" data-name="Layer 1" xmlns="http://www.w3.org/2000/svg" viewBox="0 0 789.92 734.17"><title>TheSexyRussians_ICON</title><path d="M626.93,859.94q74.13-207.78,148.48-416.2C708.34,467.35,649,455.8,596.34,408.63L112.81,776.16l-.82-1L571.75,377.59c-30.64-54.13-32.27-108.9-4.65-165.5L87.76,343l-.27-.69c1.9-.73,3.78-1.5,5.69-2.19q273.61-98.94,547.21-198c15.82-5.73,31.38-11.83,48.18-14.28,67.29-9.78,134.19,22.71,167.17,82.63,27.21,49.43,28.74,100.49,4.93,151.63-36.88,79.19-74.62,158-111.62,237.12-39.95,85.47-79.47,171.15-119.19,256.74-.68,1.47-1.45,2.89-2.18,4.33Z" transform="translate(-87.49 -126.07)"/><path d="M504.92,637,616.83,434.84l16.4,9.7-127.38,193Z" transform="translate(-87.49 -126.07)"/></svg>